<svg xmlns="http://www.w3.org/2000/svg" xml:space="preserve" data-version="1" data-id="lg_eY40KVYzlo7u6ENAVc" viewBox="719.5 -0.5 561 197"><g id="outer-wrapper" data-padding="20" transform="matrix(1,0,0,1,0,0)"><g id="inner-wrapper" transform="matrix(0.9642857142857143,0,0,0.9642857142857143,10,3.5)"><rect width="344.324" height="108.48" x="453.9904357066382" y="-356.2402521440882" fill="none" rx="0" ry="0" transform="translate(508.34 412.1)"/><path fill="#ded53a" d="M991.0324357066381 139.74974785591183H975.4724357066381V112.60974785591185L962.2924357066381 57.249747855911835H978.6524357066381L983.2524357066382 85.18974785591183L987.8424357066381 57.249747855911835H1004.1524357066381L991.0324357066381 112.60974785591185ZM1020.8524357066381 140.49974785591183Q1014.992435706638 140.49974785591183 1011.9224357066381 137.7797478559118Q1008.8524357066381 135.06974785591183 1007.7324357066381 130.32974785591182Q1006.6024357066381 125.5997478559118 1006.6024357066381 119.5997478559118Q1006.6024357066381 113.17974785591178 1007.872435706638 109.06974785591183Q1009.132435706638 104.9697478559118 1012.2024357066381 102.3497478559118Q1015.272435706638 99.7197478559118 1020.662435706638 97.88974785591182L1031.072435706638 94.32974785591182V87.10974785591179Q1031.072435706638 81.43974785591178 1027.372435706638 81.43974785591178Q1023.992435706638 81.43974785591178 1023.992435706638 86.02974785591175V90.24974785591178H1007.6824357066381Q1007.632435706638 89.87974785591177 1007.632435706638 89.2897478559118V87.95974785591181Q1007.632435706638 77.45974785591181 1012.5824357066381 73.06974785591183Q1017.522435706638 68.68974785591183 1028.262435706638 68.68974785591183Q1033.882435706638 68.68974785591183 1038.342435706638 70.67974785591184Q1042.7924357066381 72.67974785591184 1045.392435706638 76.56974785591183T1047.992435706638 86.17974785591184V139.74974785591183H1031.302435706638V131.40974785591186Q1030.092435706638 135.81974785591188 1027.2724357066381 138.15974785591186Q1024.4624357066382 140.49974785591183 1020.8524357066381 140.49974785591183M1027.4624357066382 127.46974785591186Q1029.5224357066381 127.46974785591186 1030.2724357066381 125.73974785591184Q1031.0224357066381 123.99974785591183 1031.0224357066381 121.98974785591184V102.38974785591182Q1027.552435706638 103.79974785591185 1025.6324357066383 105.92974785591184Q1023.7124357066381 108.06974785591183 1023.7124357066381 112.18974785591183V121.23974785591184Q1023.7124357066381 127.46974785591186 1027.4624357066382 127.46974785591186M1071.5124357066381 139.74974785591183H1054.452435706638V57.249747855911835H1071.5124357066381ZM1095.342435706638 139.74974785591183H1078.2724357066381V57.249747855911835H1095.342435706638ZM1114.872435706638 140.49974785591183Q1109.0124357066381 140.49974785591183 1105.9424357066382 137.7797478559118Q1102.872435706638 135.06974785591183 1101.7524357066382 130.32974785591182Q1100.622435706638 125.5997478559118 1100.622435706638 119.5997478559118Q1100.622435706638 113.17974785591178 1101.892435706638 109.06974785591183Q1103.1524357066382 104.9697478559118 1106.222435706638 102.3497478559118Q1109.2924357066381 99.7197478559118 1114.6924357066382 97.88974785591182L1125.092435706638 94.32974785591182V87.10974785591179Q1125.092435706638 81.43974785591178 1121.392435706638 81.43974785591178Q1118.0124357066381 81.43974785591178 1118.0124357066381 86.02974785591175V90.24974785591178H1101.702435706638Q1101.6524357066382 89.87974785591177 1101.6524357066382 89.2897478559118V87.95974785591181Q1101.6524357066382 77.45974785591181 1106.602435706638 73.06974785591183Q1111.5424357066381 68.68974785591183 1122.2824357066381 68.68974785591183Q1127.9024357066382 68.68974785591183 1132.362435706638 70.67974785591184Q1136.812435706638 72.67974785591184 1139.412435706638 76.56974785591183T1142.0124357066381 86.17974785591184V139.74974785591183H1125.332435706638V131.40974785591186Q1124.112435706638 135.81974785591188 1121.2924357066381 138.15974785591186Q1118.4824357066382 140.49974785591183 1114.872435706638 140.49974785591183M1121.4824357066382 127.46974785591186Q1123.5424357066381 127.46974785591186 1124.2924357066381 125.73974785591184Q1125.0424357066381 123.99974785591183 1125.0424357066381 121.98974785591184V102.38974785591182Q1121.582435706638 103.79974785591185 1119.6524357066382 105.92974785591184Q1117.7324357066382 108.06974785591183 1117.7324357066382 112.18974785591183V121.23974785591184Q1117.7324357066382 127.46974785591186 1121.4824357066382 127.46974785591186M1167.9824357066382 140.49974785591183Q1159.032435706638 140.49974785591183 1153.572435706638 134.92974785591184Q1148.112435706638 129.34974785591186 1148.112435706638 119.31974785591183V81.24974785591183Q1148.112435706638 69.24974785591183 1152.862435706638 62.87974785591183Q1157.622435706638 56.499747855911835 1168.362435706638 56.499747855911835Q1174.222435706638 56.499747855911835 1178.7924357066381 58.65974785591186T1185.9824357066382 65.10974785591185Q1188.612435706638 69.38974785591182 1188.612435706638 75.90974785591186V90.15974785591186H1172.202435706638V77.96974785591186Q1172.202435706638 74.26974785591187 1171.262435706638 72.97974785591185Q1170.332435706638 71.68974785591183 1168.362435706638 71.68974785591183Q1166.062435706638 71.68974785591183 1165.262435706638 73.35974785591185Q1164.472435706638 75.01974785591187 1164.472435706638 77.77974785591186V119.07974785591188Q1164.472435706638 122.49974785591189 1165.472435706638 123.90974785591186Q1166.4824357066382 125.31974785591188 1168.362435706638 125.31974785591188Q1170.472435706638 125.31974785591188 1171.332435706638 123.57974785591188Q1172.202435706638 121.84974785591186 1172.202435706638 119.07974785591188V104.21974785591186H1188.7924357066381V119.82974785591188Q1188.7924357066381 130.70974785591187 1183.312435706638 135.60974785591185Q1177.832435706638 140.49974785591183 1167.9824357066382 140.49974785591183M1214.4424357066382 140.49974785591183Q1193.4424357066382 140.49974785591183 1193.4424357066382 118.70974785591181V90.48974785591184Q1193.4424357066382 80.54974785591185 1199.0124357066381 74.61974785591184Q1204.5924357066383 68.68974785591183 1214.4424357066382 68.68974785591183Q1224.332435706638 68.68974785591183 1229.9024357066382 74.61974785591184Q1235.4824357066382 80.54974785591185 1235.4824357066382 90.48974785591184V118.70974785591187Q1235.4824357066382 140.4997478559119 1214.4424357066382 140.4997478559119M1214.4424357066382 127.56974785591188Q1216.5424357066381 127.56974785591188 1217.4624357066382 126.03974785591191Q1218.372435706638 124.51974785591193 1218.372435706638 122.1797478559119V87.81974785591188Q1218.372435706638 81.6797478559119 1214.4424357066382 81.6797478559119Q1210.5024357066382 81.6797478559119 1210.5024357066382 87.81974785591188V122.1797478559119Q1210.5024357066382 124.51974785591187 1211.412435706638 126.03974785591191Q1212.332435706638 127.56974785591188 1214.4424357066382 127.56974785591188M1270.0324357066381 139.7497478559119H1250.622435706638L1239.332435706638 69.43974785591189H1256.1524357066382L1260.1924357066382 116.40974785591192L1264.7324357066382 69.43974785591189H1281.512435706638Z "/><path fill="#2bd42b" fill-rule="evenodd" d="M829.5854357066381 14.983747855911815L829.6884357066381 14.932747855911828L829.7394357066381 14.906747855911817L829.8174357066381 14.828747855911843L829.8684357066381 14.777747855911855Q829.8684357066381 14.725747855911834 829.920435706638 14.69974785591188V14.596747855911872L829.9464357066381 14.570747855911861V14.493747855911863L829.9724357066381 14.441747855911842V14.338747855911834L829.997435706638 14.287747855911846V14.132747855911873L830.0234357066381 14.002747855911878L830.1264357066382 13.92574785591188L830.0494357066382 13.874747855911892V14.00374785591191L828.5794357066382 15.113747855911924ZM830.1524357066381 13.900747855911789C831.1584357066381 14.260747855911802 831.468435706638 13.332747855911805 831.958435706638 12.739747855911787L832.0884357066382 12.635747855911802L832.2164357066381 12.506747855911783ZM864.7244357066381 150.6407478559118C888.2804357066381 122.67274785591178 903.0374357066381 90.81074785591181 906.0564357066381 54.01974785591182A74.8 74.8 0 0 0 902.2894357066381 21.898747855911836C901.0514357066381 18.49274785591183 900.0194357066381 14.854747855911853 896.9744357066381 12.455747855911852Q891.8664357066381 8.327747855911866 885.958435706638 5.334747855911871A46.44 46.44 0 0 0 859.0224357066381 0.45874785591189493C849.838435706638 1.5937478559118858 841.8654357066381 5.46374785591189 834.5124357066381 10.855747855911886L834.4094357066381 10.93374785591186C834.151435706638 11.113747855911868 833.9454357066381 11.293747855911874 834.151435706638 11.681747855911851C834.5384357066381 11.939747855911833 834.796435706638 11.681747855911851 835.1064357066381 11.501747855911844C840.5764357066381 8.92174785591186 846.200435706638 6.7277478559118435 852.2114357066381 5.901747855911822C864.6984357066381 4.173747855911813 875.3024357066381 7.5017478559118445 883.2494357066381 17.64174785591183C889.9054357066381 26.10374785591182 892.4084357066381 36.08874785591183 893.3114357066381 46.537747855911846C894.2654357066381 57.37374785591186 893.362435706638 68.13174785591184 890.8344357066381 78.68374785591186C881.4174357066381 117.89974785591187 861.9384357066381 150.33074785591185 827.4174357066381 172.85374785591188Q827.3664357066382 172.77674785591188 827.4174357066381 172.8797478559119C829.3784357066381 173.62774785591188 831.3654357066381 174.2997478559119 833.2744357066381 175.09874785591188C834.4354357066381 175.5887478559119 835.3384357066382 175.45974785591187 836.4474357066381 174.8407478559119A111 111 0 0 0 864.6984357066381 150.6657478559119 " vector-effect="non-scaling-stroke"/><path fill="#2bd42b" fill-rule="evenodd" d="M848.8494357066381 145.47974785591185C868.2504357066381 121.87374785591186 880.247435706638 95.16974785591185 882.1314357066381 64.39074785591185C882.9054357066381 52.08474785591187 881.4084357066381 40.06074785591187 875.0874357066381 29.14774785591186C869.1534357066381 18.93174785591185 860.3304357066381 13.126747855911844 848.2554357066381 12.68774785591188C840.9804357066381 12.429747855911899 834.2204357066381 14.3647478559119 827.6154357066381 17.150747855911902C827.564435706638 15.293747855911874 826.7124357066381 16.273747855911893 826.0674357066381 16.738747855911924A121.3 121.3 0 0 0 800.0614357066381 41.583747855911895A162.5 162.5 0 0 0 772.3264357066381 94.9127478559119C770.210435706638 101.87874785591191 768.7144357066381 108.94774785591193 767.604435706638 116.1197478559119C767.4244357066381 117.35874785591187 767.708435706638 117.71974785591192 768.998435706638 117.74574785591187C774.1064357066381 117.82274785591187 774.1064357066381 117.87474785591189 774.8284357066381 112.84374785591189L775.0094357066381 111.34674785591187A175.4 175.4 0 0 1 801.9444357066382 46.2277478559119A142 142 0 0 1 824.0294357066381 19.988747855911924C824.8554357066381 20.60874785591193 823.4614357066381 21.046747855911917 823.7714357066382 21.6147478559119Q823.7714357066382 21.66574785591189 823.8484357066382 21.74374785591192H824.3134357066381L825.3454357066381 21.433747855911918C831.7694357066381 19.653747855911945 838.2454357066381 19.111747855911915 844.7464357066381 20.788747855911936C856.0984357066382 23.704747855911933 862.9364357066381 31.49574785591193 867.0124357066381 42.04874785591193C871.8364357066381 54.508747855911906 871.8114357066381 67.3837478559119 869.7984357066381 80.3357478559119A129 129 0 0 1 850.0614357066381 130.9037478559119C840.4644357066381 145.6097478559119 828.8024357066381 158.2517478559119 813.1164357066382 166.7137478559119C812.9094357066381 166.8427478559119 812.6004357066381 166.97174785591187 812.7544357066381 167.3337478559119L813.1164357066382 167.5397478559119C814.5354357066382 168.05574785591193 816.0064357066381 168.49374785591192 817.3464357066381 169.1647478559119C818.9984357066381 169.96474785591192 820.2884357066381 169.68074785591193 821.8884357066381 168.7777478559119A100.6 100.6 0 0 0 848.8484357066382 145.4807478559119M884.1434357066381 153.65874785591188A216.7 216.7 0 0 0 928.1064357066382 69.62874785591185C929.0864357066382 66.56274785591188 929.0134357066381 63.25674785591184 927.9004357066382 60.23674785591186A126.4 126.4 0 0 0 919.3344357066381 40.938747855911856A173 173 0 0 1 917.4514357066382 60.03074785591184A188.3 188.3 0 0 1 893.9214357066382 123.93774785591182C884.0404357066383 140.91374785591182 872.0944357066383 156.2127478559118 856.8724357066383 168.82974785591182A111 111 0 0 1 842.8124357066382 178.58174785591183C845.3404357066382 179.5367478559118 847.5594357066382 180.3107478559118 849.7264357066382 181.2387478559118C851.0424357066382 181.8327478559118 852.0744357066383 181.6257478559118 853.2864357066383 180.8787478559118A131.6 131.6 0 0 0 884.1434357066382 153.65874785591183 " vector-effect="non-scaling-stroke"/><path fill="#2bd42b" fill-rule="evenodd" d="M836.6114357066381 124.29874785591181C836.3274357066381 124.81474785591183 835.9914357066381 125.30474785591178 835.8884357066381 125.84674785591181A67 67 0 0 1 829.4904357066381 145.48074785591183C829.9294357066381 145.40274785591185 830.2124357066381 145.4287478559118 830.3414357066381 145.32574785591186Q832.1474357066381 143.33874785591183 833.8764357066381 141.24874785591186A121.26 121.26 0 0 0 859.8564357066381 83.61174785591186C861.6634357066381 72.33774785591186 861.508435706638 61.08874785591183 857.8704357066381 50.12374785591186C852.8904357066381 35.00474785591183 841.2294357066381 24.710747855911848 823.891435706638 26.12974785591183C819.5574357066381 26.49074785591182 818.0094357066381 27.574747855911824 816.3844357066381 32.063747855911856L816.5384357066381 32.140747855911854L817.622435706638 32.21874785591183C831.348435706638 32.34774785591185 840.6874357066381 39.132747855911816 846.2344357066381 51.38774785591181C851.084435706638 62.146747855911826 851.4464357066381 73.54974785591179 850.027435706638 85.03074785591178A105.8 105.8 0 0 1 836.6114357066381 124.29874785591181 " vector-effect="non-scaling-stroke"/><path fill="#2bd42b" fill-rule="evenodd" d="M820.5804357066381 67.93374785591186Q820.7354357066381 67.57374785591185 820.7614357066382 67.31474785591183A2.6 2.6 0 0 0 820.5294357066381 66.28274785591185A33.54 33.54 0 0 0 811.3964357066382 53.640747855911854C810.0544357066381 52.55774785591183 807.603435706638 52.17074785591183 807.5004357066381 50.41574785591183C807.3974357066381 48.81574785591181 808.7904357066382 47.13974785591182 809.3834357066381 45.46274785591186C809.7444357066381 44.404747855911864 810.1574357066381 44.249747855911835 811.2154357066381 44.636747855911835Q820.0394357066382 47.80974785591184 825.1994357066382 55.626747855911844C831.1844357066382 64.65674785591182 832.6294357066381 74.77074785591185 832.1394357066381 85.32374785591185C832.0874357066382 86.50974785591183 832.1394357066381 87.59374785591183 832.5524357066381 88.67774785591183A72.2 72.2 0 0 1 836.4224357066381 105.60174785591181C837.3254357066381 105.08574785591179 837.2994357066382 104.2607478559118 837.5054357066381 103.61574785591182A87.7 87.7 0 0 0 840.8084357066382 88.9097478559118C842.1754357066382 78.38274785591182 841.9684357066382 67.9337478559118 837.9444357066382 57.8977478559118C834.0224357066381 48.1717478559118 827.4944357066381 41.12774785591182 817.0204357066382 38.47074785591178C813.2794357066381 37.5157478559118 813.3054357066381 37.54174785591181 811.1634357066381 40.71474785591181A193.5 193.5 0 0 0 794.0834357066382 71.80474785591178A178 178 0 0 0 780.8484357066382 116.2317478559118C780.6684357066381 117.44474785591183 780.8484357066382 117.77974785591181 782.0354357066382 117.70174785591183A33.5 33.5 0 0 1 786.5764357066381 117.70174785591183C788.0984357066382 117.83174785591183 788.5114357066382 117.13474785591183 788.7174357066381 115.76774785591181C790.1624357066381 106.89174785591183 792.4584357066382 98.22374785591182 795.0904357066381 89.6577478559118C797.2574357066381 82.5877478559118 800.6634357066381 75.9577478559118 802.0044357066381 68.6047478559118C802.6494357066381 64.99274785591177 803.8364357066381 61.53574785591178 804.6884357066381 57.9747478559118C805.0754357066381 56.40174785591182 805.5654357066381 56.06574785591181 807.1134357066381 56.943747855911795A51.6 51.6 0 0 1 820.5804357066381 67.9337478559118M934.2814357066381 88.05774785591183C917.7434357066381 126.83574785591185 896.1494357066381 161.22774785591184 860.6224357066382 185.1697478559118C863.3574357066382 186.20174785591178 865.9884357066381 187.12974785591177 868.5684357066382 188.18774785591177C869.6004357066381 188.6267478559118 870.3744357066381 188.44574785591175 871.3034357066381 187.82674785591178A139.3 139.3 0 0 0 891.1694357066382 171.95974785591176C909.2294357066381 154.67374785591176 923.3684357066381 134.52374785591178 935.2614357066382 112.67174785591175Q935.9064357066381 111.53574785591172 935.8814357066382 110.22074785591172A157 157 0 0 0 934.2814357066381 88.05774785591171M879.6624357066381 192.23774785591172C882.8364357066381 193.4257478559117 885.6744357066381 194.37974785591172 888.4344357066382 195.56674785591173C889.8284357066382 196.15974785591175 890.8084357066382 195.85074785591172 891.9694357066381 195.0507478559117C904.9984357066381 185.94374785591168 916.1444357066382 174.8497478559117 926.5154357066382 162.92974785591173C927.2124357066382 162.12974785591172 927.5474357066381 161.20074785591174 927.8574357066382 160.24674785591174A150 150 0 0 0 933.4304357066381 139.0387478559117C933.5844357066381 138.21374785591172 933.8684357066381 137.3107478559117 933.3264357066381 136.2527478559117C918.4144357066382 157.7957478559117 901.8254357066381 177.42974785591173 879.6624357066381 192.2387478559117M809.6924357066382 28.382747855911703A100.6 100.6 0 0 0 794.7034357066382 39.940747855911695A131.6 131.6 0 0 0 764.9304357066381 84.42074785591171Q758.6094357066381 99.6427478559117 756.4164357066381 115.9477478559117C756.3644357066381 116.5417478559117 755.9774357066382 117.57374785591168 756.6744357066382 117.67674785591169Q759.0474357066381 118.06374785591169 761.3694357066381 117.67674785591169C762.4534357066382 117.46974785591169 762.1434357066381 116.12874785591168 762.2474357066382 115.27674785591171C763.0474357066381 108.98174785591169 764.4404357066381 102.8157478559117 766.2204357066381 96.75274785591171Q774.7084357066382 68.11474785591173 793.5944357066381 44.92074785591171Q800.9724357066382 36.0197478559117 809.6934357066382 28.408747855911713 " vector-effect="non-scaling-stroke"/><path fill="#2bd42b" fill-rule="evenodd" d="M789.276435706638 43.32974785591182L788.8644357066381 42.864747855911844A25.8 25.8 0 0 0 782.2334357066381 47.63774785591187A112.23 112.23 0 0 0 746.9904357066381 113.81474785591189C746.3714357066381 118.04674785591192 746.3454357066381 117.9947478559119 750.0864357066381 117.94274785591188C751.170435706638 117.89174785591189 751.6344357066381 117.6077478559119 751.6344357066381 116.49874785591186Q751.737435706638 114.64074785591185 752.0994357066381 112.86074785591188A121.26 121.26 0 0 1 783.2134357066382 49.392747855911864Q786.1804357066381 46.29674785591186 789.276435706638 43.303747855911865 " vector-effect="non-scaling-stroke"/></g><rect width="560" height="196" x="720" y="0" id="space-saver" fill="transparent" stroke="transparent"/></g></svg>